<svg xmlns="http://www.w3.org/2000/svg" xmlns:xlink="http://www.w3.org/1999/xlink" width="207" height="202" version="1.1" style=""><rect id="backgroundrect" width="100%" height="100%" x="0" y="0" fill="none" stroke="none"/>

<g class="currentLayer" style=""><title>Layer 1</title><g id="surface1" class="">
<path style=" stroke:none;fill-rule:evenodd;fill:rgb(84.764099%,68.164062%,34.521484%);fill-opacity:1;" d="M129.19921875,30.90625 C130.375,33.28125 132.7265625,37.83203125 135,43.18359375 C137.27734375,48.53125 139.4765625,54.68359375 143.42578125,62.58203125 C147.375,70.48046875 153.07421875,80.1328125 156.625,85.734375 C160.17578125,91.33203125 161.57421875,92.8828125 163.02734375,94.83203125 C164.4765625,96.78125 165.9765625,99.1328125 166.69921875,101.85546875 C167.42578125,104.58203125 167.375,107.68359375 167.25,110.89453125 C167.125,114.10546875 166.92578125,117.43359375 166.30078125,121.59375 C165.67578125,125.7578125 164.625,130.7578125 163.375,135.046875 C162.125,139.33203125 160.67578125,142.91015625 157.82421875,147.421875 C154.97265625,151.93359375 150.72265625,157.3828125 146.1484375,161.734375 C141.57421875,166.08203125 136.67578125,169.3359375 131.5234375,171.859375 C126.375,174.3828125 120.97265625,176.18359375 117.9375,177.3203125 C114.8984375,178.4609375 114.22265625,178.93359375 113.75,179.20703125 C113.2734375,179.484375 113,179.55859375 112.44921875,179.33203125 C111.8984375,179.109375 111.07421875,178.58203125 110.26171875,178.421875 C109.44921875,178.2578125 108.6484375,178.45703125 107.9375,178.84765625 C107.22265625,179.234375 106.59765625,179.80859375 105.97265625,180.12109375 C105.34765625,180.43359375 104.72265625,180.484375 104.01171875,180.1953125 C103.30078125,179.91015625 102.5,179.28515625 101.625,178.87109375 C100.75,178.45703125 99.80078125,178.2578125 99,178.39453125 C98.19921875,178.53515625 97.55078125,179.0078125 97.0859375,179.24609375 C96.625,179.484375 96.34765625,179.484375 94.5,178.984375 C92.6484375,178.484375 89.22265625,177.484375 85.25,175.84765625 C81.2734375,174.2109375 76.75,171.93359375 72.875,169.8203125 C69,167.7109375 65.7734375,165.7578125 62.61328125,163.234375 C59.44921875,160.7109375 56.34765625,157.609375 53.5625,153.8828125 C50.7734375,150.16015625 48.30078125,145.80859375 46.36328125,141.5078125 C44.42578125,137.20703125 43.0234375,132.95703125 41.8984375,127.08203125 C40.7734375,121.20703125 39.92578125,113.70703125 40.09765625,108.33203125 C40.2734375,102.95703125 41.47265625,99.70703125 43.94921875,95.78515625 C46.421875,91.859375 50.171875,87.2578125 53.8203125,81.72265625 C57.47265625,76.18359375 61.01953125,69.7109375 64.1953125,63.18359375 C67.37109375,56.66015625 70.171875,50.0859375 72.0703125,45.26171875 C73.97265625,40.4375 74.97265625,37.359375 76.0078125,34.8984375 C77.046875,32.4375 78.12109375,30.5859375 78.62109375,29.59765625 C79.12109375,28.609375 79.046875,28.484375 78.234375,28.97265625 C77.421875,29.4609375 75.87109375,30.5625 73.41015625,33.0625 C70.9453125,35.5625 67.5703125,39.4609375 63.6953125,44.2734375 C59.8203125,49.0859375 55.4453125,54.8125 52.66015625,58.66015625 C49.87109375,62.51171875 48.671875,64.484375 47.984375,65.2109375 C47.296875,65.9375 47.12109375,65.41015625 47.2578125,60.7734375 C47.39453125,56.13671875 47.84765625,47.38671875 47.859375,42.28515625 C47.87109375,37.1875 47.4453125,35.734375 47.171875,34.953125 C46.89453125,34.171875 46.76953125,34.05859375 46.58203125,34.33984375 C46.39453125,34.62109375 46.14453125,35.296875 45.39453125,37.4296875 C44.64453125,39.55859375 43.39453125,43.1484375 41.8515625,47.69921875 C40.30859375,52.24609375 38.47265625,57.76171875 37.2265625,61.98046875 C35.984375,66.19921875 35.33203125,69.12109375 34.65625,71.359375 C33.984375,73.59765625 33.28125,75.1484375 32.93359375,76.22265625 C32.58203125,77.296875 32.58203125,77.8984375 32.28125,77.07421875 C31.984375,76.24609375 31.3828125,73.99609375 30.3203125,71.18359375 C29.2578125,68.37109375 27.734375,64.99609375 26.76953125,62.97265625 C25.80859375,60.94921875 25.40625,60.2734375 25.03125,60.296875 C24.65625,60.32421875 24.30859375,61.046875 23.984375,63.671875 C23.65625,66.296875 23.359375,70.82421875 23.28125,75.6875 C23.20703125,80.546875 23.359375,85.74609375 23.43359375,88.5234375 C23.5078125,91.296875 23.5078125,91.6484375 22.43359375,90.19921875 C21.359375,88.74609375 19.20703125,85.49609375 17.70703125,83.22265625 C16.20703125,80.94921875 15.35546875,79.6484375 14.7578125,78.94921875 C14.15625,78.24609375 13.80859375,78.1484375 14.40625,80.82421875 C15.0078125,83.49609375 16.55859375,88.94921875 18.2578125,95.17578125 C19.95703125,101.3984375 21.80859375,108.3984375 22.93359375,112.82421875 C24.05859375,117.24609375 24.45703125,119.09765625 24.53125,119.99609375 C24.60546875,120.8984375 24.35546875,120.84765625 22.859375,119.6484375 C21.359375,118.44921875 18.60546875,116.09765625 16.03125,114.125 C13.45703125,112.1484375 11.05859375,110.546875 9.83203125,109.74609375 C8.609375,108.94921875 8.55859375,108.94921875 9.78125,111.19921875 C11.0078125,113.44921875 13.5078125,117.94921875 16.984375,124.296875 C20.45703125,130.6484375 24.90625,138.84765625 27.09375,142.92578125 C29.28125,147 29.20703125,146.94921875 28.14453125,146.6484375 C27.08203125,146.34765625 25.03125,145.796875 21.71875,144.375 C18.40625,142.94921875 13.83203125,140.6484375 10.37109375,139.16015625 C6.90625,137.67578125 4.55859375,137 3.34375,136.6484375 C2.1328125,136.30078125 2.05859375,136.2734375 4.26953125,138.4375 C6.48046875,140.59765625 10.98046875,144.94921875 14.64453125,148.3359375 C18.3046875,151.72265625 21.1328125,154.1484375 23.08203125,155.875 C25.03125,157.59765625 26.10546875,158.625 26.21875,159.0859375 C26.33203125,159.546875 25.48046875,159.44921875 23.3828125,159.19921875 C21.28125,158.94921875 17.9296875,158.55078125 14.34375,158.13671875 C10.7578125,157.72265625 6.9296875,157.30078125 4.45703125,157.125 C1.98046875,156.94921875 0.85546875,157.0234375 0.29296875,157.0625 C-0.26953125,157.09765625 -0.26953125,157.09765625 2.54296875,158.53515625 C5.35546875,159.97265625 10.98046875,162.84765625 16.35546875,165.609375 C21.73046875,168.375 26.85546875,171.0234375 31.01953125,172.94921875 C35.1796875,174.87109375 38.3828125,176.07421875 39.8203125,176.875 C41.2578125,177.671875 40.9296875,178.07421875 39.9921875,178.41015625 C39.0546875,178.74609375 37.5078125,179.0234375 33.90625,179.859375 C30.3046875,180.69921875 24.65625,182.09765625 20.15625,183.22265625 C15.65625,184.34765625 12.3046875,185.19921875 10.1328125,185.671875 C7.95703125,186.1484375 6.95703125,186.25 6.4296875,186.32421875 C5.90625,186.3984375 5.85546875,186.44921875 8.6796875,187.125 C11.5078125,187.796875 17.20703125,189.09765625 27.28125,190.47265625 C37.35546875,191.84765625 51.8046875,193.296875 62.7578125,193.6484375 C73.70703125,194 81.15625,193.25 85.27734375,192.85546875 C89.39453125,192.4609375 90.18359375,192.421875 90.95703125,192.91796875 C91.734375,193.41015625 92.49609375,194.43359375 92.80078125,195.68359375 C93.109375,196.9375 92.95703125,198.41015625 93.34375,199.484375 C93.73046875,200.5625 94.65625,201.234375 95.71875,201.34765625 C96.78125,201.4609375 97.984375,201.01171875 99.0703125,200.30859375 C100.15625,199.609375 101.1328125,198.66015625 101.7578125,198.046875 C102.3828125,197.4375 102.65625,197.16015625 103.24609375,197.63671875 C103.83203125,198.109375 104.734375,199.3359375 105.59375,200.05859375 C106.45703125,200.78515625 107.28125,201.01171875 107.71875,201.07421875 C108.15625,201.13671875 108.20703125,201.03515625 108.20703125,200.32421875 C108.20703125,199.609375 108.15625,198.28515625 108.35546875,197.43359375 C108.55859375,196.5859375 109.0078125,196.2109375 109.65625,196.44921875 C110.30859375,196.6875 111.15625,197.53515625 111.99609375,198.53515625 C112.83203125,199.53515625 113.65625,200.6875 114.18359375,201.26171875 C114.70703125,201.8359375 114.9296875,201.8359375 115.41796875,201.0859375 C115.90625,200.3359375 116.65625,198.8359375 117.16796875,197.296875 C117.68359375,195.76171875 117.95703125,194.18359375 118.21875,193.296875 C118.484375,192.41015625 118.734375,192.2109375 120.109375,192.3359375 C121.484375,192.4609375 123.984375,192.91015625 129.08203125,193.30859375 C134.18359375,193.7109375 141.8828125,194.0625 148.23046875,193.8125 C154.58203125,193.5625 159.58203125,192.7109375 166.0546875,191.484375 C172.53125,190.26171875 180.48046875,188.66015625 186.2578125,187.5625 C192.03125,186.4609375 195.6328125,185.859375 197.6328125,185.484375 C199.6328125,185.109375 200.03125,184.9609375 198.30859375,184.4375 C196.58203125,183.91015625 192.734375,183.01171875 187.484375,182.03515625 C182.234375,181.0625 175.58203125,180.01171875 171.60546875,179.484375 C167.6328125,178.9609375 166.33203125,178.9609375 165.80859375,178.78515625 C165.28125,178.609375 165.53125,178.26171875 168.5546875,176.78515625 C171.58203125,175.3125 177.3828125,172.7109375 183.53125,169.734375 C189.68359375,166.76171875 196.1796875,163.41015625 200.20703125,161.30859375 C204.234375,159.2109375 205.78125,158.359375 206.45703125,157.859375 C207.1328125,157.359375 206.93359375,157.2109375 204.65625,157.32421875 C202.3828125,157.4375 198.03125,157.8125 195.41796875,158.09765625 C192.80859375,158.38671875 191.93359375,158.5859375 190.12109375,158.84765625 C188.30859375,159.109375 185.55859375,159.43359375 183.78125,159.62109375 C182.0078125,159.80859375 181.20703125,159.859375 181.0078125,159.59765625 C180.80859375,159.3359375 181.20703125,158.76171875 183.734375,156.41015625 C186.2578125,154.0625 190.90625,149.93359375 194.41796875,146.796875 C197.93359375,143.66015625 200.30859375,141.51171875 202.03125,139.8984375 C203.7578125,138.28515625 204.83203125,137.2109375 205.37109375,136.671875 C205.90625,136.13671875 205.90625,136.13671875 204.76953125,136.546875 C203.6328125,136.9609375 201.359375,137.78515625 197.359375,139.3984375 C193.359375,141.01171875 187.6328125,143.41015625 184.21875,144.8828125 C180.80859375,146.359375 179.70703125,146.91015625 179.01953125,147.18359375 C178.33203125,147.4609375 178.05859375,147.4609375 179.359375,144.796875 C180.65625,142.13671875 183.53125,136.80859375 185.84375,132.34765625 C188.15625,127.8828125 189.90625,124.28515625 191.859375,120.70703125 C193.80859375,117.1328125 195.95703125,113.58203125 197.08203125,111.58203125 C198.20703125,109.58203125 198.30859375,109.1328125 197.96875,109.0703125 C197.6328125,109.0078125 196.859375,109.33203125 195.15625,110.6953125 C193.45703125,112.05859375 190.83203125,114.45703125 188.4609375,116.46484375 C186.09375,118.46484375 183.98046875,120.0703125 183.1796875,120.1953125 C182.37890625,120.3203125 182.89453125,118.96484375 183.7265625,116.1875 C184.55859375,113.40625 185.70703125,109.20703125 187.02734375,104.05078125 C188.34375,98.89453125 189.83203125,92.78125 190.8203125,88.484375 C191.80859375,84.18359375 192.29296875,81.6953125 192.45703125,80.45703125 C192.62109375,79.21875 192.45703125,79.234375 191.6015625,80.265625 C190.74609375,81.296875 189.1953125,83.34375 187.87109375,85.31640625 C186.54296875,87.28125 185.4453125,89.171875 184.6875,90.24609375 C183.93359375,91.3203125 183.51953125,91.58203125 183.30078125,91.71484375 C183.08203125,91.84765625 183.0546875,91.84765625 183.15234375,89.49609375 C183.24609375,87.14453125 183.45703125,82.4453125 183.5703125,78.05078125 C183.6796875,73.65625 183.6953125,69.5703125 183.38671875,66.6953125 C183.08203125,63.8203125 182.45703125,62.16015625 182.10546875,61.22265625 C181.75390625,60.28515625 181.6796875,60.0703125 181.64453125,59.96484375 C181.60546875,59.859375 181.60546875,59.859375 181.04296875,61.11328125 C180.48046875,62.37109375 179.35546875,64.8828125 178.4375,67.0703125 C177.51953125,69.2578125 176.8046875,71.12109375 176.3125,72.83984375 C175.8203125,74.55859375 175.54296875,76.1328125 175.3046875,77.0703125 C175.0703125,78.0078125 174.8671875,78.30859375 174.76171875,78.43359375 C174.65625,78.55859375 174.64453125,78.5078125 174.33203125,77.33203125 C174.015625,76.16015625 173.40625,73.859375 172.625,71.4453125 C171.83984375,69.03515625 170.890625,66.5078125 169.6171875,62.3828125 C168.33984375,58.2578125 166.7421875,52.53515625 165.1796875,47.53515625 C163.6171875,42.53515625 162.08984375,38.2578125 161.27734375,36.05859375 C160.46484375,33.859375 160.3671875,33.734375 160.078125,35.16015625 C159.79296875,36.58203125 159.31640625,39.55859375 159.2421875,44.6953125 C159.16796875,49.83203125 159.4921875,57.1328125 159.71484375,61.1484375 C159.94140625,65.16015625 160.06640625,65.8828125 160.04296875,66.22265625 C160.015625,66.55859375 159.83984375,66.5078125 158.2421875,64.18359375 C156.640625,61.859375 153.6171875,57.26171875 150.2265625,52.66015625 C146.83984375,48.05859375 143.08984375,43.4609375 139.69140625,39.51171875 C136.2890625,35.55859375 133.2421875,32.26171875 131.3515625,30.47265625 C129.46484375,28.68359375 128.7421875,28.41015625 128.37890625,28.37109375 C128.01953125,28.33203125 128.01953125,28.53125 129.19921875,30.90625 zM110.09375,180.7421875 C110.71484375,180.7109375 111.9375,181.109375 112.58203125,181.54296875 C113.2265625,181.97265625 113.2890625,182.43359375 113.2890625,182.80859375 C113.2890625,183.18359375 113.2265625,183.47265625 112.74609375,183.43359375 C112.265625,183.3984375 111.36328125,183.03515625 110.74609375,182.69140625 C110.12890625,182.34765625 109.7890625,182.0234375 109.62890625,181.62890625 C109.46484375,181.234375 109.4765625,180.7734375 110.09375,180.7421875 zM108.890625,186.05859375 C108.265625,186.03515625 107.828125,186.47265625 107.49609375,186.96875 C107.1640625,187.4609375 106.9375,188.01171875 107.34375,188.43359375 C107.75390625,188.859375 108.7890625,189.16015625 109.66015625,189.19921875 C110.52734375,189.234375 111.2265625,189.01171875 111.4453125,188.609375 C111.6640625,188.2109375 111.40234375,187.63671875 110.86328125,187.10546875 C110.328125,186.57421875 109.515625,186.0859375 108.890625,186.05859375 zM102.40234375,182.48046875 C102.1015625,182.66015625 101.50390625,183.13671875 101.03515625,183.7421875 C100.5625,184.34765625 100.2265625,185.0859375 100.1640625,185.69140625 C100.1015625,186.296875 100.3125,186.7734375 100.64453125,186.8671875 C100.9765625,186.9609375 101.42578125,186.671875 101.83984375,186.33984375 C102.25390625,186.01171875 102.62890625,185.63671875 102.90234375,185.53125 C103.17578125,185.421875 103.3515625,185.5859375 103.34375,185.84765625 C103.33984375,186.109375 103.15234375,186.47265625 103.24609375,186.90234375 C103.33984375,187.3359375 103.71484375,187.8359375 104.05078125,187.84765625 C104.390625,187.859375 104.6875,187.38671875 105.00390625,186.90625 C105.3125,186.421875 105.640625,185.93359375 105.89453125,185.37890625 C106.15234375,184.82421875 106.33984375,184.19921875 106.21484375,183.8671875 C106.08984375,183.53515625 105.65234375,183.49609375 105.2890625,183.6796875 C104.92578125,183.859375 104.640625,184.26171875 104.25390625,184.55859375 C103.86328125,184.859375 103.37890625,185.05859375 103.1640625,184.91796875 C102.953125,184.7734375 103.015625,184.28515625 103.046875,183.9609375 C103.078125,183.63671875 103.078125,183.47265625 103.015625,183.26171875 C102.953125,183.046875 102.828125,182.78515625 102.765625,182.59765625 C102.703125,182.41015625 102.703125,182.296875 102.40234375,182.48046875 zM95.4375,185.16015625 C95.1875,185.24609375 94.9140625,185.4609375 95.1328125,186.12890625 C95.3515625,186.796875 96.0625,187.921875 96.8203125,188.49609375 C97.578125,189.07421875 98.37890625,189.09765625 98.62109375,188.921875 C98.86328125,188.74609375 98.55078125,188.37109375 98.43359375,187.82421875 C98.3125,187.2734375 98.390625,186.546875 98.33203125,186.1171875 C98.27734375,185.68359375 98.08984375,185.546875 97.703125,185.43359375 C97.3125,185.32421875 96.7265625,185.234375 96.3203125,185.171875 C95.9140625,185.109375 95.6875,185.07421875 95.4375,185.16015625 zM92.96484375,189.44921875 C93.40234375,189.546875 94.00390625,189.97265625 94.78515625,190.578125 C95.5625,191.18359375 96.52734375,191.97265625 97.05078125,192.32421875 C97.578125,192.671875 97.6640625,192.5859375 98.0703125,192.19921875 C98.4765625,191.80859375 99.203125,191.12109375 99.93359375,191.06640625 C100.6640625,191.01171875 101.40234375,191.5859375 102.078125,192.29296875 C102.75390625,192.99609375 103.36328125,193.8359375 104.203125,194.109375 C105.0390625,194.38671875 106.1015625,194.09765625 106.8125,193.73046875 C107.52734375,193.359375 107.890625,192.91015625 108.1953125,192.46875 C108.50390625,192.0234375 108.75390625,191.5859375 109.23828125,191.2109375 C109.7265625,190.8359375 110.453125,190.5234375 111.2578125,190.84765625 C112.0625,191.171875 112.953125,192.13671875 113.3515625,192.7109375 C113.75390625,193.28515625 113.6640625,193.47265625 113.76953125,194.19140625 C113.87890625,194.91015625 114.17578125,196.16015625 114.12109375,196.71484375 C114.0625,197.2734375 113.65234375,197.13671875 112.80078125,196.6171875 C111.953125,196.09765625 110.6640625,195.19921875 109.83203125,194.75390625 C109.00390625,194.30859375 108.62890625,194.32421875 108.18359375,194.734375 C107.73828125,195.1484375 107.2265625,195.9609375 107.0390625,196.66015625 C106.8515625,197.359375 106.98828125,197.94921875 106.546875,198.03125 C106.1015625,198.109375 105.078125,197.68359375 104.171875,196.984375 C103.265625,196.28515625 102.4765625,195.30859375 101.6875,194.734375 C100.90234375,194.16015625 100.11328125,193.984375 99.6953125,194.171875 C99.27734375,194.359375 99.2265625,194.91015625 99.23828125,195.69921875 C99.25390625,196.484375 99.328125,197.51171875 99.08984375,198.171875 C98.8515625,198.8359375 98.30078125,199.13671875 97.66015625,199.05859375 C97.015625,198.984375 96.27734375,198.53515625 95.578125,197.515625 C94.87890625,196.49609375 94.21484375,194.91015625 93.546875,193.66796875 C92.87890625,192.421875 92.203125,191.5234375 91.9375,190.93359375 C91.67578125,190.34765625 91.828125,190.07421875 92.0390625,189.82421875 C92.25390625,189.57421875 92.52734375,189.34765625 92.96484375,189.44921875 zM67.48046875,48.45703125 C67.6796875,47.23828125 67.484375,47.5 65.8359375,49.703125 C64.18359375,51.90234375 61.08203125,56.0390625 58.44140625,60.53125 C55.8046875,65.02734375 53.62890625,69.875 51.81640625,74.1015625 C50.00390625,78.328125 48.5546875,81.92578125 47.640625,84.30078125 C46.7265625,86.67578125 46.3515625,87.828125 46.31640625,88.31640625 C46.27734375,88.80078125 46.578125,88.625 47.96484375,86.73828125 C49.3515625,84.8515625 51.828125,81.25 54.203125,77.4140625 C56.578125,73.578125 58.8515625,69.5 60.81640625,65.73828125 C62.77734375,61.9765625 64.4296875,58.52734375 65.5546875,55.453125 C66.6796875,52.375 67.27734375,49.67578125 67.48046875,48.45703125 zM45.08984375,51.765625 C45.40234375,53.40234375 45.8046875,57.203125 45.90234375,60.515625 C46.00390625,63.828125 45.8046875,66.65234375 45.5390625,69.67578125 C45.27734375,72.703125 44.953125,75.92578125 44.453125,78.828125 C43.953125,81.7265625 43.27734375,84.30078125 42.7265625,86.67578125 C42.1796875,89.05078125 41.75390625,91.2265625 41.3046875,92.21484375 C40.8515625,93.203125 40.37890625,93 40.0546875,90.9140625 C39.7265625,88.828125 39.5546875,84.8515625 39.6796875,80.1640625 C39.8046875,75.4765625 40.2265625,70.078125 40.8515625,65.73828125 C41.4765625,61.40234375 42.3046875,58.125 42.9140625,55.875 C43.52734375,53.625 43.9296875,52.40234375 44.2421875,51.52734375 C44.5546875,50.65234375 44.77734375,50.125 45.08984375,51.765625 zM28.453125,75.00390625 C28.6015625,74.328125 28.625,74.37890625 29.52734375,76.29296875 C30.42578125,78.203125 32.19921875,81.98046875 33.578125,86.46484375 C34.953125,90.953125 35.92578125,96.15234375 36.46484375,100.078125 C37,104 37.1015625,106.65234375 37.08984375,108.578125 C37.078125,110.5 36.953125,111.703125 36.77734375,112.11328125 C36.6015625,112.52734375 36.375,112.15234375 35.5,110.203125 C34.625,108.25 33.1015625,104.7265625 31.953125,100.9765625 C30.80078125,97.2265625 30.02734375,93.25 29.390625,89.46484375 C28.75,85.67578125 28.25,82.078125 28.140625,79.578125 C28.02734375,77.078125 28.30078125,75.67578125 28.453125,75.00390625 zM20.69921875,90.25 C21.453125,91.05078125 22.94921875,93.27734375 24.9765625,96.46484375 C27,99.65234375 29.55078125,103.80078125 32.0625,108.92578125 C34.57421875,114.05078125 37.05078125,120.15234375 38.6640625,124.375 C40.27734375,128.6015625 41.02734375,130.953125 41.3125,132.33984375 C41.6015625,133.7265625 41.42578125,134.15234375 40.703125,133.30078125 C39.9765625,132.453125 38.69921875,130.328125 36.61328125,126.9140625 C34.52734375,123.5 31.625,118.80078125 29.1875,113.96484375 C26.75,109.125 24.77734375,104.15234375 23.3125,100.25 C21.8515625,96.3515625 20.90234375,93.52734375 20.42578125,91.80078125 C19.94921875,90.078125 19.94921875,89.453125 20.69921875,90.25 zM23.46484375,122.02734375 C25.30078125,123.62890625 28.69921875,126.55078125 32.52734375,130.375 C36.3515625,134.203125 40.6015625,138.92578125 43.55078125,142.48828125 C46.5,146.05078125 48.15234375,148.453125 49.2890625,150.30078125 C50.42578125,152.15234375 51.05078125,153.453125 51.21484375,154.27734375 C51.375,155.1015625 51.07421875,155.453125 49.453125,154.5390625 C47.82421875,153.62890625 44.875,151.453125 41.48828125,148.21484375 C38.1015625,144.9765625 34.27734375,140.67578125 31.07421875,136.453125 C27.875,132.2265625 25.30078125,128.078125 23.73828125,125.328125 C22.17578125,122.578125 21.625,121.2265625 21.48828125,120.69140625 C21.3515625,120.15234375 21.625,120.4296875 23.46484375,122.02734375 zM19.4140625,145.21484375 C22.27734375,146.078125 27.453125,147.90234375 32.578125,149.90234375 C37.703125,151.90234375 42.77734375,154.078125 46.27734375,155.83984375 C49.77734375,157.60546875 51.703125,158.953125 53.375,160.1640625 C55.05078125,161.37890625 56.4765625,162.453125 57.2265625,163.078125 C57.9765625,163.703125 58.05078125,163.87890625 57.05078125,164.04296875 C56.05078125,164.203125 53.9765625,164.35546875 49.58984375,162.90234375 C45.203125,161.453125 38.5,158.40234375 32.77734375,155.3671875 C27.05078125,152.328125 22.30078125,149.3046875 19.57421875,147.50390625 C16.8515625,145.703125 16.15234375,145.12890625 16.07421875,144.7890625 C16,144.453125 16.55078125,144.35546875 19.4140625,145.21484375 zM77.21484375,173.98046875 C78.1015625,174.4296875 78.94921875,174.75390625 79.5390625,175.0546875 C80.125,175.35546875 80.44921875,175.62890625 79.65234375,175.8671875 C78.8515625,176.10546875 76.92578125,176.3046875 72.19921875,175.83984375 C67.4765625,175.37890625 59.94921875,174.25390625 52.17578125,172.515625 C44.40234375,170.77734375 36.375,168.4296875 30.94921875,166.6796875 C25.52734375,164.9296875 22.69921875,163.77734375 21.5625,163.1796875 C20.42578125,162.578125 20.9765625,162.52734375 22.6640625,162.50390625 C24.3515625,162.48046875 27.17578125,162.48046875 32.46484375,163.2421875 C37.75,164.00390625 45.5,165.52734375 51.6875,166.73046875 C57.875,167.9296875 62.5,168.8046875 66.0390625,169.69140625 C69.57421875,170.578125 72.02734375,171.48046875 73.71484375,172.21484375 C75.40234375,172.953125 76.32421875,173.52734375 77.21484375,173.98046875 zM90.5625,182.0390625 C88.74609375,181.2578125 85.1796875,180.07421875 80.0625,179.25390625 C74.9453125,178.43359375 68.26953125,177.984375 60.78125,178.234375 C53.29296875,178.484375 44.9921875,179.43359375 38.58203125,180.47265625 C32.16796875,181.5078125 27.64453125,182.6328125 25.10546875,183.37109375 C22.5703125,184.109375 22.01953125,184.4609375 21.7421875,184.6328125 C21.46875,184.80859375 21.46875,184.80859375 23.73046875,185.0859375 C25.9921875,185.359375 30.51953125,185.91015625 35.7421875,186.30859375 C40.96875,186.7109375 46.89453125,186.9609375 53.4296875,187.0859375 C59.96875,187.2109375 67.1171875,187.2109375 72.8828125,186.921875 C78.64453125,186.63671875 83.01953125,186.05859375 86.08984375,185.58203125 C89.1640625,185.10546875 90.9296875,184.72265625 91.7890625,184.40234375 C92.64453125,184.078125 92.58984375,183.81640625 92.52734375,183.5 C92.4609375,183.18359375 92.3828125,182.81640625 90.5625,182.0390625 zM140.1484375,48.45703125 C139.94921875,47.23828125 140.14453125,47.5 141.79296875,49.703125 C143.4453125,51.90234375 146.546875,56.0390625 149.1875,60.53125 C151.82421875,65.02734375 154,69.875 155.8125,74.1015625 C157.625,78.328125 159.07421875,81.92578125 159.98828125,84.30078125 C160.90234375,86.67578125 161.27734375,87.828125 161.3125,88.31640625 C161.3515625,88.80078125 161.05078125,88.625 159.6640625,86.73828125 C158.27734375,84.8515625 155.80078125,81.25 153.42578125,77.4140625 C151.05078125,73.578125 148.77734375,69.5 146.8125,65.73828125 C144.8515625,61.9765625 143.19921875,58.52734375 142.07421875,55.453125 C140.94921875,52.375 140.3515625,49.67578125 140.1484375,48.45703125 zM162.5390625,51.765625 C162.2265625,53.40234375 161.82421875,57.203125 161.7265625,60.515625 C161.625,63.828125 161.82421875,66.65234375 162.08984375,69.67578125 C162.3515625,72.703125 162.67578125,75.92578125 163.17578125,78.828125 C163.67578125,81.7265625 164.3515625,84.30078125 164.90234375,86.67578125 C165.44921875,89.05078125 165.875,91.2265625 166.32421875,92.21484375 C166.77734375,93.203125 167.25,93 167.57421875,90.9140625 C167.90234375,88.828125 168.078125,84.8515625 167.953125,80.1640625 C167.828125,75.4765625 167.40234375,70.078125 166.77734375,65.73828125 C166.15234375,61.40234375 165.32421875,58.125 164.71484375,55.875 C164.1015625,53.625 163.703125,52.40234375 163.38671875,51.52734375 C163.07421875,50.65234375 162.8515625,50.125 162.5390625,51.765625 zM179.17578125,75.00390625 C179.02734375,74.328125 179.00390625,74.37890625 178.1015625,76.29296875 C177.203125,78.203125 175.42578125,81.98046875 174.05078125,86.46484375 C172.67578125,90.953125 171.703125,96.15234375 171.1640625,100.078125 C170.62890625,104 170.52734375,106.65234375 170.5390625,108.578125 C170.55078125,110.5 170.67578125,111.703125 170.8515625,112.11328125 C171.02734375,112.52734375 171.25,112.15234375 172.125,110.203125 C173.00390625,108.25 174.52734375,104.7265625 175.67578125,100.9765625 C176.828125,97.2265625 177.6015625,93.25 178.23828125,89.46484375 C178.87890625,85.67578125 179.37890625,82.078125 179.48828125,79.578125 C179.6015625,77.078125 179.328125,75.67578125 179.17578125,75.00390625 zM186.92578125,90.25 C186.17578125,91.05078125 184.67578125,93.27734375 182.65234375,96.46484375 C180.62890625,99.65234375 178.078125,103.80078125 175.5625,108.92578125 C173.05078125,114.05078125 170.578125,120.15234375 168.96484375,124.375 C167.3515625,128.6015625 166.6015625,130.953125 166.3125,132.33984375 C166.02734375,133.7265625 166.203125,134.15234375 166.92578125,133.30078125 C167.65234375,132.453125 168.92578125,130.328125 171.015625,126.9140625 C173.1015625,123.5 176.00390625,118.80078125 178.4375,113.96484375 C180.87890625,109.125 182.8515625,104.15234375 184.3125,100.25 C185.77734375,96.3515625 186.7265625,93.52734375 187.203125,91.80078125 C187.67578125,90.078125 187.67578125,89.453125 186.92578125,90.25 zM184.1640625,122.02734375 C182.328125,123.62890625 178.92578125,126.55078125 175.1015625,130.375 C171.27734375,134.203125 167.02734375,138.92578125 164.078125,142.48828125 C161.12890625,146.05078125 159.4765625,148.453125 158.33984375,150.30078125 C157.203125,152.15234375 156.578125,153.453125 156.4140625,154.27734375 C156.25390625,155.1015625 156.55078125,155.453125 158.17578125,154.5390625 C159.80078125,153.62890625 162.75390625,151.453125 166.140625,148.21484375 C169.52734375,144.9765625 173.3515625,140.67578125 176.55078125,136.453125 C179.75390625,132.2265625 182.328125,128.078125 183.890625,125.328125 C185.453125,122.578125 186.00390625,121.2265625 186.140625,120.69140625 C186.27734375,120.15234375 186.00390625,120.4296875 184.1640625,122.02734375 zM188.21484375,145.21484375 C185.3515625,146.078125 180.17578125,147.90234375 175.05078125,149.90234375 C169.92578125,151.90234375 164.8515625,154.078125 161.3515625,155.83984375 C157.8515625,157.60546875 155.92578125,158.953125 154.25390625,160.1640625 C152.578125,161.37890625 151.15234375,162.453125 150.40234375,163.078125 C149.65234375,163.703125 149.578125,163.87890625 150.578125,164.04296875 C151.578125,164.203125 153.65234375,164.35546875 158.0390625,162.90234375 C162.42578125,161.453125 169.12890625,158.40234375 174.8515625,155.3671875 C180.578125,152.328125 185.328125,149.3046875 188.05078125,147.50390625 C190.77734375,145.703125 191.4765625,145.12890625 191.55078125,144.7890625 C191.62890625,144.453125 191.078125,144.35546875 188.21484375,145.21484375 zM130.4140625,173.98046875 C129.52734375,174.4296875 128.67578125,174.75390625 128.08984375,175.0546875 C127.50390625,175.35546875 127.17578125,175.62890625 127.9765625,175.8671875 C128.77734375,176.10546875 130.703125,176.3046875 135.4296875,175.83984375 C140.15234375,175.37890625 147.67578125,174.25390625 155.453125,172.515625 C163.2265625,170.77734375 171.25390625,168.4296875 176.6796875,166.6796875 C182.1015625,164.9296875 184.9296875,163.77734375 186.06640625,163.1796875 C187.203125,162.578125 186.65234375,162.52734375 184.96484375,162.50390625 C183.27734375,162.48046875 180.453125,162.48046875 175.1640625,163.2421875 C169.87890625,164.00390625 162.12890625,165.52734375 155.94140625,166.73046875 C149.75390625,167.9296875 145.12890625,168.8046875 141.58984375,169.69140625 C138.05078125,170.578125 135.6015625,171.48046875 133.9140625,172.21484375 C132.2265625,172.953125 131.30078125,173.52734375 130.4140625,173.98046875 zM117.0625,182.0390625 C118.8828125,181.2578125 122.4453125,180.07421875 127.56640625,179.25390625 C132.68359375,178.43359375 139.359375,177.984375 146.84765625,178.234375 C154.3359375,178.484375 162.6328125,179.43359375 169.046875,180.47265625 C175.4609375,181.5078125 179.984375,182.6328125 182.5234375,183.37109375 C185.05859375,184.109375 185.609375,184.4609375 185.8828125,184.6328125 C186.16015625,184.80859375 186.16015625,184.80859375 183.8984375,185.0859375 C181.6328125,185.359375 177.109375,185.91015625 171.8828125,186.30859375 C166.66015625,186.7109375 160.734375,186.9609375 154.19921875,187.0859375 C147.66015625,187.2109375 140.5078125,187.2109375 134.74609375,186.921875 C128.984375,186.63671875 124.609375,186.05859375 121.5390625,185.58203125 C118.46484375,185.10546875 116.6953125,184.72265625 115.83984375,184.40234375 C114.984375,184.078125 115.0390625,183.81640625 115.1015625,183.5 C115.16796875,183.18359375 115.24609375,182.81640625 117.0625,182.0390625 " id="svg_1"/>
<path style=" stroke:none;fill-rule:evenodd;fill:rgb(84.764099%,68.164062%,34.521484%);fill-opacity:1;" d="M114.015625,24.359375 C114.4375,24.41015625 114.2890625,24.80859375 114.203125,25.66015625 C114.11328125,26.51171875 114.08984375,27.80859375 114.140625,28.8984375 C114.1875,29.984375 114.3125,30.859375 114.640625,31.3984375 C114.96484375,31.93359375 115.48828125,32.13671875 115.8125,31.82421875 C116.140625,31.51171875 116.265625,30.68359375 116.7265625,29.66015625 C117.1875,28.63671875 117.9921875,27.41015625 119.578125,25.72265625 C121.1640625,24.03515625 123.5390625,21.88671875 125.7890625,20.1484375 C128.0390625,18.41015625 130.1640625,17.0859375 131.37890625,16.30859375 C132.58984375,15.53515625 132.890625,15.30859375 132.640625,15.234375 C132.390625,15.16015625 131.58984375,15.234375 129.92578125,15.62109375 C128.265625,16.01171875 125.73828125,16.7109375 124.15234375,17.171875 C122.5625,17.63671875 121.9140625,17.859375 121.4140625,17.91015625 C120.9140625,17.9609375 120.56640625,17.8359375 120.58984375,17.421875 C120.61328125,17.01171875 121.015625,16.30859375 122.1875,15.66015625 C123.36328125,15.01171875 125.31640625,14.41015625 126.77734375,13.84765625 C128.2421875,13.28515625 129.21484375,12.76171875 130.6640625,12.41015625 C132.1171875,12.05859375 134.0390625,11.88671875 134.92578125,11.7109375 C135.81640625,11.53515625 135.6640625,11.359375 135.0390625,11.234375 C134.4140625,11.109375 133.3125,11.03515625 131.75390625,11.12109375 C130.1875,11.2109375 128.1640625,11.4609375 126.25390625,11.74609375 C124.33984375,12.03515625 122.5390625,12.359375 121.015625,12.9609375 C119.48828125,13.55859375 118.2421875,14.43359375 117.4375,15.09765625 C116.640625,15.76171875 116.2890625,16.2109375 115.80078125,16.2734375 C115.3125,16.3359375 114.6875,16.01171875 114.8125,15.046875 C114.9375,14.0859375 115.81640625,12.484375 117.25390625,11.359375 C118.6875,10.234375 120.69140625,9.5859375 124.08984375,9.05859375 C127.48828125,8.53515625 132.2890625,8.13671875 135.80078125,7.859375 C139.3125,7.5859375 141.5390625,7.43359375 143.48828125,6.796875 C145.4375,6.16015625 147.1171875,5.03515625 148.17578125,3.82421875 C149.2421875,2.609375 149.69140625,1.30859375 149.890625,0.62109375 C150.08984375,-0.06640625 150.0390625,-0.140625 149.1640625,0.18359375 C148.2890625,0.51171875 146.58984375,1.234375 144.67578125,1.76171875 C142.765625,2.28515625 140.640625,2.609375 136.15234375,2.921875 C131.6640625,3.234375 124.81640625,3.53515625 120.328125,4.421875 C115.83984375,5.30859375 113.71484375,6.78515625 111.8515625,8.57421875 C109.98828125,10.359375 108.390625,12.4609375 107.27734375,14.01171875 C106.1640625,15.55859375 105.5390625,16.55859375 105.11328125,16.99609375 C104.6875,17.43359375 104.46484375,17.30859375 104.453125,16.72265625 C104.4375,16.13671875 104.640625,15.0859375 105.0625,13.8984375 C105.48828125,12.7109375 106.140625,11.38671875 106.46484375,10.62109375 C106.7890625,9.859375 106.7890625,9.66015625 106.58984375,9.72265625 C106.390625,9.78515625 105.98828125,10.109375 105.515625,10.69921875 C105.0390625,11.28515625 104.48828125,12.13671875 103.890625,13.234375 C103.2890625,14.3359375 102.640625,15.68359375 102.015625,16.43359375 C101.390625,17.18359375 100.7890625,17.3359375 100.62890625,16.734375 C100.46484375,16.13671875 100.73828125,14.78515625 101.08984375,13.78515625 C101.4375,12.78515625 101.86328125,12.13671875 101.92578125,11.796875 C101.98828125,11.4609375 101.6875,11.43359375 101.23828125,11.76171875 C100.7890625,12.0859375 100.1875,12.76171875 99.515625,13.796875 C98.83984375,14.8359375 98.08984375,16.234375 97.578125,17.38671875 C97.0625,18.53515625 96.7890625,19.43359375 96.4140625,19.78515625 C96.0390625,20.13671875 95.5625,19.93359375 95.3515625,19.2734375 C95.140625,18.609375 95.1875,17.484375 95.62890625,16.3984375 C96.0625,15.30859375 96.890625,14.26171875 97.30078125,13.72265625 C97.71484375,13.18359375 97.71484375,13.16015625 97.30078125,13.30859375 C96.890625,13.4609375 96.0625,13.78515625 94.9765625,14.91015625 C93.890625,16.03515625 92.5390625,17.9609375 91.8125,19.87109375 C91.08984375,21.78515625 90.98828125,23.68359375 91.36328125,25.3359375 C91.73828125,26.984375 92.58984375,28.38671875 93.15234375,29.57421875 C93.71484375,30.76171875 93.98828125,31.734375 94.23828125,31.94921875 C94.48828125,32.16015625 94.71484375,31.609375 95.08984375,30.6953125 C95.46484375,29.78515625 95.98828125,28.51171875 96.50390625,27.94921875 C97.015625,27.38671875 97.515625,27.53515625 97.75390625,28.07421875 C97.98828125,28.609375 97.96484375,29.53515625 97.96484375,29.921875 C97.96484375,30.30859375 97.98828125,30.16015625 98.46484375,29.26171875 C98.9375,28.359375 99.8671875,26.7109375 100.67578125,25.74609375 C101.48828125,24.78125 102.1875,24.5 102.71875,24.2890625 C103.25390625,24.07421875 103.61328125,23.9296875 103.6640625,24.64453125 C103.71484375,25.359375 103.453125,26.93359375 103.234375,28.07421875 C103.015625,29.2109375 102.83984375,29.91015625 103.00390625,30.046875 C103.1640625,30.18359375 103.6640625,29.76171875 104.40234375,28.9609375 C105.140625,28.16015625 106.11328125,26.984375 106.9140625,26.0703125 C107.71484375,25.16015625 108.33984375,24.51171875 108.80078125,24.47265625 C109.265625,24.43359375 109.5625,25.01171875 109.62890625,25.63671875 C109.6875,26.26171875 109.515625,26.93359375 109.48828125,27.43359375 C109.46484375,27.93359375 109.58984375,28.26171875 109.828125,28.1484375 C110.0625,28.03515625 110.4140625,27.484375 110.7265625,26.87109375 C111.0390625,26.26171875 111.31640625,25.5859375 111.953125,25.09765625 C112.58984375,24.609375 113.58984375,24.30859375 114.015625,24.359375 " id="svg_2"/>
<path style=" stroke:none;fill-rule:evenodd;fill:rgb(84.764099%,68.164062%,34.521484%);fill-opacity:1;" d="M94.375,34.95703125 L114.328125,34.95703125 C114.328125,36.0234375 113.64453125,36.9375 112.6953125,37.28515625 L112.6953125,57.28125 C112.6953125,59.578125 111.15625,61.53515625 109.0625,62.15234375 L105.30859375,131.484375 C104.9921875,131.484375 104.671875,131.484375 104.35546875,131.484375 C104.03515625,131.484375 103.7109375,131.484375 103.390625,131.484375 L99.63671875,62.15234375 C97.546875,61.53125 96.0078125,59.578125 96.0078125,57.28125 L96.0078125,37.28515625 C95.05859375,36.9375 94.375,36.0234375 94.375,34.95703125 " id="svg_3"/>
<path style=" stroke:none;fill-rule:nonzero;fill:rgb(84.764099%,68.164062%,34.521484%);fill-opacity:1;" d="M56.84765625,127.05859375 C56.87109375,127.94921875 56.7890625,128.6015625 56.6015625,129.01171875 C56.33203125,129.6015625 55.87890625,129.98046875 55.25,130.14453125 C54.5859375,130.31640625 53.96484375,130.19140625 53.390625,129.7734375 C52.6953125,129.25 52.18359375,128.3671875 51.859375,127.1171875 L50.68359375,122.62109375 L50.92578125,122.55859375 C51.03515625,122.96875 51.14453125,123.23828125 51.2578125,123.36328125 C51.37109375,123.48828125 51.49609375,123.5625 51.6328125,123.58984375 C51.76953125,123.6171875 52.078125,123.5703125 52.5546875,123.4453125 L58.29296875,121.94921875 C58.7734375,121.82421875 59.06640625,121.71484375 59.17578125,121.62109375 C59.28515625,121.53125 59.35546875,121.40234375 59.390625,121.234375 C59.42578125,121.0703125 59.390625,120.78515625 59.28515625,120.37890625 L59.52734375,120.31640625 L60.6328125,124.5546875 C60.89453125,125.56640625 60.9921875,126.30859375 60.921875,126.77734375 C60.8515625,127.24609375 60.671875,127.6484375 60.375,127.984375 C60.08203125,128.32421875 59.73046875,128.54296875 59.32421875,128.6484375 C58.8984375,128.76171875 58.48046875,128.703125 58.06640625,128.484375 C57.65234375,128.26171875 57.24609375,127.78515625 56.84765625,127.05859375 zM56.40625,124.640625 C56.56640625,125.2578125 56.75390625,125.6953125 56.97265625,125.953125 C57.1875,126.20703125 57.44140625,126.3828125 57.734375,126.47265625 C58.02734375,126.56640625 58.3671875,126.55859375 58.76171875,126.45703125 C59.15234375,126.35546875 59.453125,126.1953125 59.6640625,125.9765625 C59.87109375,125.75390625 60.00390625,125.484375 60.05859375,125.1640625 C60.1171875,124.84375 60.05859375,124.3671875 59.890625,123.734375 zM55.8984375,124.7734375 L53.05859375,125.51171875 L52.734375,125.59375 C52.49609375,125.65234375 52.3359375,125.7578125 52.25,125.91015625 C52.16015625,126.05859375 52.1484375,126.25390625 52.20703125,126.48828125 C52.30078125,126.8359375 52.4609375,127.13671875 52.69140625,127.390625 C52.921875,127.64453125 53.203125,127.80859375 53.5390625,127.88671875 C53.87109375,127.96875 54.21875,127.96484375 54.58203125,127.8671875 C54.9921875,127.76171875 55.33984375,127.56640625 55.6171875,127.2890625 C55.89453125,127.015625 56.05859375,126.69140625 56.09765625,126.3203125 C56.14453125,125.953125 56.07421875,125.4375 55.8984375,124.7734375 " id="svg_4"/>
<path style=" stroke:none;fill-rule:nonzero;fill:rgb(84.764099%,68.164062%,34.521484%);fill-opacity:1;" d="M58.453125,136.13671875 L57.0546875,133.23046875 L56.08984375,133.265625 C55.765625,133.28125 55.51953125,133.33203125 55.34375,133.4140625 C55.11328125,133.5234375 54.98828125,133.69921875 54.96875,133.9375 C54.953125,134.078125 55.0390625,134.37109375 55.2109375,134.81640625 L54.984375,134.92578125 L53.66796875,132.1875 L53.89453125,132.078125 C54.08203125,132.3515625 54.3203125,132.53515625 54.61328125,132.62890625 C54.90234375,132.7265625 55.4296875,132.76171875 56.1953125,132.73828125 L64.1796875,132.52734375 L64.234375,132.64453125 L58.90625,138.85546875 C58.40234375,139.4453125 58.11328125,139.87109375 58.03515625,140.13671875 C57.97265625,140.33203125 57.99609375,140.5625 58.09375,140.82421875 L57.87109375,140.9296875 L55.95703125,136.9453125 L56.1796875,136.83984375 L56.26171875,137 C56.4140625,137.3203125 56.56640625,137.5234375 56.71875,137.61328125 C56.82421875,137.671875 56.94140625,137.671875 57.05859375,137.609375 C57.1328125,137.578125 57.203125,137.52734375 57.265625,137.46875 C57.30078125,137.44140625 57.42578125,137.30859375 57.63671875,137.06640625 zM58.8046875,135.71484375 L61.046875,133.125 L57.60546875,133.22265625 L58.8046875,135.71484375 " id="svg_5"/>
<path style=" stroke:none;fill-rule:nonzero;fill:rgb(84.764099%,68.164062%,34.521484%);fill-opacity:1;" d="M68.12109375,138.99609375 L66.36328125,146.015625 L69.48046875,143.6328125 C69.9140625,143.30078125 70.16015625,143.01171875 70.21875,142.76953125 C70.29296875,142.4375 70.171875,142.07421875 69.859375,141.6796875 L70.05859375,141.52734375 L71.890625,143.92578125 L71.6953125,144.07421875 C71.41796875,143.80078125 71.2109375,143.6328125 71.0703125,143.57421875 C70.92578125,143.515625 70.76171875,143.51171875 70.57421875,143.5625 C70.390625,143.609375 70.125,143.765625 69.78515625,144.02734375 L63.74609375,148.6484375 L63.6015625,148.46484375 L65.890625,138.94140625 L61.28125,142.46875 C60.86328125,142.7890625 60.65625,143.09765625 60.65234375,143.40234375 C60.65625,143.703125 60.75,143.9765625 60.93359375,144.22265625 L61.06640625,144.39453125 L60.87109375,144.546875 L58.8984375,141.97265625 L59.1015625,141.8203125 C59.40625,142.21875 59.703125,142.43359375 59.984375,142.46875 C60.265625,142.5 60.59765625,142.37109375 60.984375,142.07421875 L66.09765625,138.16015625 L66.17578125,137.859375 C66.25,137.55859375 66.2734375,137.32421875 66.2421875,137.16015625 C66.21484375,137 66.1171875,136.8046875 65.95703125,136.57421875 L66.15625,136.42578125 L68.12109375,138.99609375 " id="svg_6"/>
<path style=" stroke:none;fill-rule:nonzero;fill:rgb(84.764099%,68.164062%,34.521484%);fill-opacity:1;" d="M73.6796875,149.73828125 L73.43359375,154.87890625 C73.40234375,155.60546875 73.44140625,156.15234375 73.5546875,156.51953125 C73.640625,156.78515625 73.78125,157.00390625 73.98046875,157.1796875 L73.8125,157.3671875 L70.24609375,154.2265625 L70.40625,154.0390625 C70.65234375,154.21875 70.828125,154.30859375 70.9375,154.31640625 C71.05078125,154.32421875 71.13671875,154.2890625 71.203125,154.21875 C71.328125,154.07421875 71.40625,153.671875 71.44140625,153.0078125 L71.60546875,149.6484375 L71.1640625,149.640625 L69.51953125,151.51171875 C69.20703125,151.8671875 69.03125,152.109375 68.99609375,152.23046875 C68.95703125,152.35546875 68.96875,152.5 69.02734375,152.66015625 C69.08984375,152.82421875 69.24609375,153.015625 69.5,153.23828125 L69.33203125,153.42578125 L65.87109375,150.38671875 L66.0390625,150.1953125 L66.265625,150.3984375 C66.46484375,150.57421875 66.65625,150.67578125 66.83984375,150.71484375 C66.96875,150.7421875 67.109375,150.72265625 67.25390625,150.6484375 C67.36328125,150.6015625 67.5703125,150.40625 67.87109375,150.05859375 L71.83984375,145.55078125 C72.1484375,145.1953125 72.3203125,144.96484375 72.359375,144.83984375 C72.40234375,144.72265625 72.390625,144.578125 72.3359375,144.4140625 C72.28125,144.24609375 72.16015625,144.08203125 71.96484375,143.9140625 L71.73828125,143.71484375 L71.90625,143.5234375 L75.3203125,146.52734375 L75.15234375,146.71484375 C74.921875,146.51171875 74.71484375,146.38671875 74.53515625,146.34765625 C74.40234375,146.31640625 74.265625,146.3359375 74.1171875,146.40625 C74.00390625,146.453125 73.79296875,146.65234375 73.48828125,147 L71.609375,149.1328125 L75.96484375,149.3125 C76.5703125,149.3359375 76.94921875,149.26171875 77.1015625,149.08984375 C77.21484375,148.9609375 77.23046875,148.796875 77.15234375,148.59375 C77.109375,148.4921875 76.9453125,148.30859375 76.66015625,148.0390625 L76.82421875,147.8515625 L79.50390625,150.203125 L79.3359375,150.390625 C79.08203125,150.19921875 78.85546875,150.07421875 78.66015625,150.02734375 C78.4609375,149.9765625 77.9453125,149.93359375 77.1015625,149.89453125 L73.6796875,149.73828125 " id="svg_7"/>
<path style=" stroke:none;fill-rule:nonzero;fill:rgb(84.764099%,68.164062%,34.521484%);fill-opacity:1;" d="M87.125,153.34375 C88.46875,153.90625 89.36328125,154.79296875 89.80859375,155.9921875 C90.25390625,157.1953125 90.19140625,158.41015625 89.6171875,159.640625 C89.12890625,160.69140625 88.39453125,161.4765625 87.40625,161.98828125 C86.1015625,162.66796875 84.703125,162.6640625 83.21484375,161.9765625 C81.72265625,161.28125 80.8046875,160.23828125 80.4609375,158.8515625 C80.1875,157.75390625 80.3046875,156.65625 80.8125,155.55859375 C81.38671875,154.328125 82.28125,153.5 83.5,153.06640625 C84.71875,152.6328125 85.9296875,152.7265625 87.125,153.34375 zM87.01953125,153.765625 C86.26171875,153.41796875 85.50390625,153.53515625 84.75,154.125 C84.1328125,154.61328125 83.546875,155.44921875 82.99609375,156.640625 C82.3359375,158.0546875 82.1015625,159.21484375 82.28515625,160.12109375 C82.4140625,160.75390625 82.78515625,161.21875 83.41015625,161.5078125 C83.828125,161.69921875 84.2265625,161.76171875 84.6015625,161.69140625 C85.0859375,161.59375 85.5546875,161.30859375 86.01953125,160.828125 C86.48828125,160.34765625 86.93359375,159.6484375 87.36328125,158.7265625 C87.87109375,157.62890625 88.1484375,156.76171875 88.19921875,156.125 C88.24609375,155.48828125 88.1640625,154.984375 87.953125,154.609375 C87.7421875,154.23828125 87.4296875,153.95703125 87.01953125,153.765625 " id="svg_8"/>
<path style=" stroke:none;fill-rule:nonzero;fill:rgb(84.764099%,68.164062%,34.521484%);fill-opacity:1;" d="M94.98828125,156.1953125 L94.125,159.84375 L94.3828125,159.90625 C94.7734375,160 95.109375,160.015625 95.3828125,159.95703125 C95.6640625,159.8984375 95.921875,159.75 96.16015625,159.51171875 C96.3984375,159.2734375 96.59765625,158.91796875 96.765625,158.45703125 L96.99609375,158.5078125 L95.9375,162.9765625 L95.70703125,162.91796875 C95.82421875,162.05859375 95.73046875,161.4453125 95.42578125,161.09375 C95.12109375,160.734375 94.734375,160.5 94.265625,160.390625 L94.0078125,160.328125 L93.3671875,163.05078125 C93.2578125,163.50390625 93.21484375,163.796875 93.23828125,163.91796875 C93.26171875,164.046875 93.3359375,164.16796875 93.4609375,164.2890625 C93.58984375,164.40625 93.77734375,164.49609375 94.02734375,164.5546875 L94.32421875,164.625 L94.265625,164.8671875 L89.6171875,163.76953125 L89.67578125,163.52734375 L89.96875,163.59765625 C90.2265625,163.65625 90.4453125,163.66015625 90.625,163.60546875 C90.75390625,163.5703125 90.86328125,163.48828125 90.9609375,163.3515625 C91.03515625,163.2578125 91.125,162.98828125 91.2265625,162.54296875 L92.61328125,156.69921875 C92.72265625,156.2421875 92.765625,155.953125 92.74609375,155.828125 C92.72265625,155.703125 92.6484375,155.58203125 92.5234375,155.4609375 C92.39453125,155.34375 92.2109375,155.25 91.9609375,155.19140625 L91.6640625,155.125 L91.72265625,154.87890625 L99.21875,156.65625 L98.6171875,159.203125 L98.34765625,159.140625 C98.42578125,158.53125 98.375,158.05078125 98.1953125,157.69921875 C98.01171875,157.3515625 97.6953125,157.06640625 97.24609375,156.83203125 C97,156.70703125 96.5234375,156.55859375 95.8125,156.390625 L94.98828125,156.1953125 " id="svg_9"/>
<path style=" stroke:none;fill-rule:nonzero;fill:rgb(84.764099%,68.164062%,34.521484%);fill-opacity:1;" d="M110.28125,156.38671875 L110.3359375,158.85546875 L110.09375,158.86328125 C109.9375,158.29296875 109.76953125,157.890625 109.58984375,157.64453125 C109.41015625,157.3984375 109.1640625,157.20703125 108.85546875,157.0625 C108.68359375,156.98828125 108.3828125,156.953125 107.95703125,156.9609375 L107.27734375,156.9765625 L107.43359375,164.01953125 C107.44140625,164.484375 107.4765625,164.77734375 107.52734375,164.890625 C107.5859375,165.0078125 107.68359375,165.10546875 107.8359375,165.19140625 C107.98828125,165.27734375 108.1953125,165.31640625 108.45703125,165.30859375 L108.76171875,165.30078125 L108.765625,165.5546875 L103.98828125,165.65625 L103.98046875,165.40625 L104.28515625,165.40234375 C104.546875,165.39453125 104.76171875,165.34375 104.921875,165.24609375 C105.03515625,165.1796875 105.125,165.0703125 105.1875,164.9140625 C105.234375,164.80859375 105.25390625,164.5234375 105.24609375,164.06640625 L105.08984375,157.0234375 L104.4296875,157.0390625 C103.81640625,157.05078125 103.37109375,157.19140625 103.09765625,157.4609375 C102.71875,157.83203125 102.484375,158.35546875 102.390625,159.03125 L102.13671875,159.03515625 L102.08203125,156.56640625 L110.28125,156.38671875 " id="svg_10"/>
<path style=" stroke:none;fill-rule:nonzero;fill:rgb(84.764099%,68.164062%,34.521484%);fill-opacity:1;" d="M116.0703125,161.92578125 L112.90625,162.5546875 L112.703125,163.50390625 C112.63671875,163.8203125 112.625,164.07421875 112.66015625,164.26171875 C112.7109375,164.51171875 112.84765625,164.6796875 113.078125,164.75390625 C113.20703125,164.8046875 113.51171875,164.796875 113.984375,164.73828125 L114.03515625,164.984375 L111.0546875,165.578125 L111.00390625,165.33203125 C111.3203125,165.21875 111.5546875,165.03515625 111.71875,164.77734375 C111.8828125,164.515625 112.046875,164.015625 112.21484375,163.2734375 L114,155.484375 L114.12109375,155.4609375 L118.81640625,162.1640625 C119.26171875,162.80078125 119.60546875,163.1875 119.83984375,163.32421875 C120.015625,163.43359375 120.2421875,163.46875 120.51953125,163.4375 L120.5703125,163.68359375 L116.234375,164.546875 L116.18359375,164.30078125 L116.36328125,164.265625 C116.7109375,164.19921875 116.94921875,164.1015625 117.0703125,163.97265625 C117.15234375,163.88671875 117.1796875,163.7734375 117.15234375,163.640625 C117.13671875,163.5625 117.109375,163.484375 117.06640625,163.40625 C117.05078125,163.3671875 116.94921875,163.21484375 116.765625,162.94921875 zM115.75,161.484375 L113.80078125,158.6640625 L113.0390625,162.0234375 L115.75,161.484375 " id="svg_11"/>
<path style=" stroke:none;fill-rule:nonzero;fill:rgb(84.764099%,68.164062%,34.521484%);fill-opacity:1;" d="M121.5234375,153.4140625 L127.765625,157.08203125 L126.35546875,153.41796875 C126.16015625,152.90625 125.953125,152.58984375 125.734375,152.46484375 C125.44140625,152.30078125 125.05859375,152.3125 124.58984375,152.5 L124.5,152.26953125 L127.31640625,151.1875 L127.40234375,151.41796875 C127.0625,151.60546875 126.84375,151.75390625 126.74609375,151.875 C126.65234375,151.99609375 126.6015625,152.15625 126.59375,152.34765625 C126.58984375,152.5390625 126.6640625,152.8359375 126.8203125,153.23828125 L129.546875,160.3359375 L129.3359375,160.41796875 L120.83984375,155.5390625 L122.92578125,160.95703125 C123.11328125,161.4453125 123.3515625,161.734375 123.64453125,161.8203125 C123.93359375,161.90625 124.22265625,161.89453125 124.51171875,161.78125 L124.71484375,161.70703125 L124.8046875,161.9375 L121.78125,163.1015625 L121.6875,162.8671875 C122.15625,162.68359375 122.4453125,162.4609375 122.55859375,162.203125 C122.671875,161.94140625 122.640625,161.5859375 122.46484375,161.1328125 L120.15234375,155.1171875 L119.8828125,154.9609375 C119.61328125,154.8046875 119.3984375,154.71484375 119.234375,154.69921875 C119.0703125,154.6796875 118.8515625,154.71484375 118.58984375,154.80859375 L118.5,154.57421875 L121.5234375,153.4140625 " id="svg_12"/>
<path style=" stroke:none;fill-rule:nonzero;fill:rgb(84.764099%,68.164062%,34.521484%);fill-opacity:1;" d="M133.9765625,146.63671875 L134.0078125,156.79296875 L135.4765625,155.87109375 C136.17578125,155.43359375 136.6328125,155.08203125 136.859375,154.8203125 C137.2265625,154.40234375 137.45703125,153.90234375 137.5546875,153.33203125 C137.65234375,152.7578125 137.5703125,152.125 137.30859375,151.43359375 L137.53125,151.29296875 L138.96875,154.28515625 L131.87890625,158.7265625 L131.84765625,148.5546875 L130.703125,149.27734375 C130.2578125,149.5546875 129.97265625,149.75390625 129.84765625,149.8671875 C129.61328125,150.08203125 129.42578125,150.3359375 129.28125,150.62890625 C129.140625,150.92578125 129.0703125,151.2421875 129.06640625,151.58203125 C129.06640625,151.921875 129.13671875,152.3046875 129.28515625,152.734375 L129.07421875,152.86328125 L127.86328125,150.46484375 L133.9765625,146.63671875 " id="svg_13"/>
<path style=" stroke:none;fill-rule:nonzero;fill:rgb(84.764099%,68.164062%,34.521484%);fill-opacity:1;" d="M142.5,147.296875 L140.1484375,149.5078125 L140.4765625,150.41796875 C140.5859375,150.71875 140.70703125,150.94140625 140.83984375,151.08203125 C141.015625,151.265625 141.21875,151.3359375 141.453125,151.28125 C141.58984375,151.25 141.84765625,151.0859375 142.21875,150.78515625 L142.390625,150.96875 L140.17578125,153.05078125 L140.00390625,152.8671875 C140.2109375,152.60546875 140.3125,152.32421875 140.3125,152.015625 C140.3125,151.70703125 140.19140625,151.1953125 139.94140625,150.4765625 L137.33203125,142.92578125 L137.42578125,142.83984375 L144.953125,146.04296875 C145.66796875,146.34765625 146.1640625,146.49609375 146.4375,146.4921875 C146.64453125,146.48828125 146.85546875,146.3984375 147.07421875,146.2265625 L147.24609375,146.40625 L144.0234375,149.43359375 L143.8515625,149.25 L143.984375,149.125 C144.24609375,148.8828125 144.39453125,148.67578125 144.4296875,148.50390625 C144.453125,148.38671875 144.41796875,148.27734375 144.32421875,148.1796875 C144.26953125,148.12109375 144.203125,148.0703125 144.125,148.0234375 C144.08984375,148 143.92578125,147.92578125 143.6328125,147.79296875 zM141.9921875,147.08984375 L138.84375,145.73046875 L139.9765625,148.98046875 L141.9921875,147.08984375 " id="svg_14"/>
<path style=" stroke:none;fill-rule:nonzero;fill:rgb(84.764099%,68.164062%,34.521484%);fill-opacity:1;" d="M142.05078125,137.0625 L149.27734375,136.609375 L146.0546875,134.36328125 C145.60546875,134.05078125 145.2578125,133.90234375 145.0078125,133.921875 C144.671875,133.94921875 144.36328125,134.171875 144.078125,134.59375 L143.875,134.44921875 L145.6015625,131.9765625 L145.8046875,132.1171875 C145.62890625,132.46484375 145.53125,132.7109375 145.51953125,132.8671875 C145.5078125,133.01953125 145.55078125,133.17578125 145.65625,133.33984375 C145.7578125,133.5 145.98828125,133.70703125 146.33984375,133.953125 L152.578125,138.30859375 L152.4453125,138.49609375 L142.671875,139.20703125 L147.43359375,142.53125 C147.8671875,142.83203125 148.2265625,142.9375 148.515625,142.84765625 C148.8046875,142.7578125 149.03515625,142.58203125 149.21484375,142.328125 L149.3359375,142.1484375 L149.5390625,142.296875 L147.68359375,144.94921875 L147.484375,144.80859375 C147.765625,144.39453125 147.87890625,144.046875 147.83203125,143.76953125 C147.77734375,143.4921875 147.55078125,143.21484375 147.15234375,142.9375 L141.8671875,139.24609375 L141.5546875,139.265625 C141.24609375,139.28515625 141.015625,139.33203125 140.87109375,139.4140625 C140.72265625,139.48828125 140.56640625,139.640625 140.3984375,139.86328125 L140.1953125,139.71875 L142.05078125,137.0625 " id="svg_15"/>
<path style=" stroke:none;fill-rule:nonzero;fill:rgb(84.764099%,68.164062%,34.521484%);fill-opacity:1;" d="M154.875,131.08984375 L155.10546875,131.1875 L153.26953125,135.59765625 L153.0390625,135.50390625 L153.15625,135.22265625 C153.2578125,134.9765625 153.296875,134.765625 153.26953125,134.578125 C153.2578125,134.4453125 153.19140625,134.3203125 153.07421875,134.203125 C152.99609375,134.1171875 152.7421875,133.984375 152.3203125,133.80859375 L146.7734375,131.50390625 C146.33984375,131.32421875 146.0625,131.234375 145.93359375,131.234375 C145.80859375,131.234375 145.67578125,131.2890625 145.5390625,131.39453125 C145.3984375,131.5 145.27734375,131.671875 145.1796875,131.90625 L145.0625,132.1875 L144.8359375,132.09375 L146.66796875,127.6796875 L146.8984375,127.7734375 L146.78125,128.0546875 C146.6796875,128.30078125 146.640625,128.515625 146.66796875,128.69921875 C146.6796875,128.8359375 146.74609375,128.95703125 146.859375,129.08203125 C146.9375,129.16796875 147.19140625,129.30078125 147.61328125,129.47265625 L153.1640625,131.78125 C153.59375,131.9609375 153.875,132.05078125 154.00390625,132.046875 C154.12890625,132.04296875 154.265625,131.98828125 154.40234375,131.88671875 C154.54296875,131.77734375 154.66015625,131.60546875 154.7578125,131.37109375 L154.875,131.08984375 " id="svg_16"/>
<path style=" stroke:none;fill-rule:nonzero;fill:rgb(84.764099%,68.164062%,34.521484%);fill-opacity:1;" d="M154.62890625,123.6328125 L153.7109375,126.7265625 L154.453125,127.34765625 C154.703125,127.5546875 154.921875,127.68359375 155.10546875,127.73828125 C155.3515625,127.80859375 155.55859375,127.765625 155.73828125,127.6015625 C155.83984375,127.50390625 155.9765625,127.234375 156.14453125,126.78515625 L156.3828125,126.859375 L155.51953125,129.76953125 L155.28125,129.69921875 C155.328125,129.37109375 155.2734375,129.07421875 155.12109375,128.80859375 C154.96875,128.54296875 154.6015625,128.1640625 154.0234375,127.66796875 L147.96484375,122.4609375 L148.00390625,122.33984375 L156.12109375,121.3125 C156.890625,121.2109375 157.39453125,121.09375 157.62890625,120.94921875 C157.8046875,120.84375 157.94140625,120.66015625 158.04296875,120.3984375 L158.28125,120.47265625 L157.0234375,124.70703125 L156.78515625,124.63671875 L156.8359375,124.46484375 C156.9375,124.12109375 156.9609375,123.8671875 156.91015625,123.703125 C156.8671875,123.58984375 156.78125,123.51171875 156.65234375,123.4765625 C156.57421875,123.44921875 156.4921875,123.44140625 156.40234375,123.44140625 C156.359375,123.4375 156.1796875,123.45703125 155.859375,123.4921875 zM154.08984375,123.70703125 L150.68359375,124.1171875 L153.30078125,126.359375 L154.08984375,123.70703125 " id="svg_17"/>
</g></g></svg>